<svg xmlns="http://www.w3.org/2000/svg" xmlns:xlink="http://www.w3.org/1999/xlink" width="72" zoomAndPan="magnify" viewBox="0 0 54 30.000001" height="40" preserveAspectRatio="xMidYMid meet" version="1.0"><defs><g/></defs><g fill="#000000" fill-opacity="1"><g transform="translate(1.593533, 18.850116)"><g><path d="M 10.34375 -8.203125 L 6.4375 -4.28125 L 10.71875 0 L 7.078125 0 L 3.796875 -3.28125 L 3.796875 0 L 0.953125 0 L 0.953125 -13.765625 L 3.796875 -13.765625 L 3.796875 -5.34375 L 6.65625 -8.203125 Z M 10.34375 -8.203125 "/></g></g></g><g fill="#000000" fill-opacity="1"><g transform="translate(10.420988, 18.850116)"><g><path d="M 9.265625 -3.71875 L 3.3125 -3.71875 C 3.3125 -3.132812 3.5 -2.703125 3.875 -2.421875 C 4.25 -2.148438 4.65625 -2.015625 5.09375 -2.015625 C 5.550781 -2.015625 5.910156 -2.078125 6.171875 -2.203125 C 6.441406 -2.328125 6.75 -2.566406 7.09375 -2.921875 L 9.140625 -1.90625 C 8.285156 -0.476562 6.863281 0.234375 4.875 0.234375 C 3.644531 0.234375 2.585938 -0.1875 1.703125 -1.03125 C 0.816406 -1.875 0.375 -2.894531 0.375 -4.09375 C 0.375 -5.289062 0.816406 -6.316406 1.703125 -7.171875 C 2.585938 -8.023438 3.644531 -8.453125 4.875 -8.453125 C 6.175781 -8.453125 7.234375 -8.070312 8.046875 -7.3125 C 8.867188 -6.5625 9.28125 -5.488281 9.28125 -4.09375 C 9.28125 -3.90625 9.273438 -3.78125 9.265625 -3.71875 Z M 3.390625 -5.28125 L 6.515625 -5.28125 C 6.453125 -5.707031 6.28125 -6.035156 6 -6.265625 C 5.726562 -6.492188 5.378906 -6.609375 4.953125 -6.609375 C 4.484375 -6.609375 4.109375 -6.484375 3.828125 -6.234375 C 3.554688 -5.992188 3.410156 -5.675781 3.390625 -5.28125 Z M 3.390625 -5.28125 "/></g></g></g><g fill="#000000" fill-opacity="1"><g transform="translate(18.560762, 18.850116)"><g><path d="M 1.234375 -12.78125 C 1.566406 -13.113281 1.960938 -13.28125 2.421875 -13.28125 C 2.878906 -13.28125 3.269531 -13.113281 3.59375 -12.78125 C 3.925781 -12.445312 4.09375 -12.050781 4.09375 -11.59375 C 4.09375 -11.132812 3.925781 -10.738281 3.59375 -10.40625 C 3.269531 -10.082031 2.878906 -9.921875 2.421875 -9.921875 C 1.960938 -9.921875 1.566406 -10.082031 1.234375 -10.40625 C 0.898438 -10.738281 0.734375 -11.132812 0.734375 -11.59375 C 0.734375 -12.050781 0.898438 -12.445312 1.234375 -12.78125 Z M 0.953125 -8.203125 L 0.953125 0 L 3.796875 0 L 3.796875 -8.203125 Z M 0.953125 -8.203125 "/></g></g></g><g fill="#000000" fill-opacity="1"><g transform="translate(21.886778, 18.850116)"><g><path d="M 8.890625 -8.203125 L 4.828125 -2.15625 L 8.578125 -2.15625 L 8.578125 0 L 0.078125 0 L 4.140625 -6.046875 L 0.75 -6.046875 L 0.75 -8.203125 Z M 8.890625 -8.203125 "/></g></g></g><g fill="#000000" fill-opacity="1"><g transform="translate(29.354865, 18.850116)"><g><path d="M 9.265625 -3.71875 L 3.3125 -3.71875 C 3.3125 -3.132812 3.5 -2.703125 3.875 -2.421875 C 4.25 -2.148438 4.65625 -2.015625 5.09375 -2.015625 C 5.550781 -2.015625 5.910156 -2.078125 6.171875 -2.203125 C 6.441406 -2.328125 6.75 -2.566406 7.09375 -2.921875 L 9.140625 -1.90625 C 8.285156 -0.476562 6.863281 0.234375 4.875 0.234375 C 3.644531 0.234375 2.585938 -0.1875 1.703125 -1.03125 C 0.816406 -1.875 0.375 -2.894531 0.375 -4.09375 C 0.375 -5.289062 0.816406 -6.316406 1.703125 -7.171875 C 2.585938 -8.023438 3.644531 -8.453125 4.875 -8.453125 C 6.175781 -8.453125 7.234375 -8.070312 8.046875 -7.3125 C 8.867188 -6.5625 9.28125 -5.488281 9.28125 -4.09375 C 9.28125 -3.90625 9.273438 -3.78125 9.265625 -3.71875 Z M 3.390625 -5.28125 L 6.515625 -5.28125 C 6.453125 -5.707031 6.28125 -6.035156 6 -6.265625 C 5.726562 -6.492188 5.378906 -6.609375 4.953125 -6.609375 C 4.484375 -6.609375 4.109375 -6.484375 3.828125 -6.234375 C 3.554688 -5.992188 3.410156 -5.675781 3.390625 -5.28125 Z M 3.390625 -5.28125 "/></g></g></g><g fill="#000000" fill-opacity="1"><g transform="translate(37.494638, 18.850116)"><g><path d="M 0.953125 0 L 0.953125 -8.203125 L 3.796875 -8.203125 L 3.796875 -7.03125 L 3.828125 -7.03125 C 3.847656 -7.070312 3.878906 -7.125 3.921875 -7.1875 C 3.972656 -7.25 4.078125 -7.359375 4.234375 -7.515625 C 4.398438 -7.679688 4.570312 -7.828125 4.75 -7.953125 C 4.9375 -8.078125 5.171875 -8.191406 5.453125 -8.296875 C 5.742188 -8.398438 6.039062 -8.453125 6.34375 -8.453125 C 6.644531 -8.453125 6.945312 -8.40625 7.25 -8.3125 C 7.550781 -8.226562 7.769531 -8.144531 7.90625 -8.0625 L 8.125 -7.9375 L 6.9375 -5.53125 C 6.59375 -5.832031 6.101562 -5.984375 5.46875 -5.984375 C 5.125 -5.984375 4.828125 -5.90625 4.578125 -5.75 C 4.335938 -5.601562 4.164062 -5.421875 4.0625 -5.203125 C 3.96875 -4.992188 3.898438 -4.816406 3.859375 -4.671875 C 3.816406 -4.523438 3.796875 -4.40625 3.796875 -4.3125 L 3.796875 0 Z M 0.953125 0 "/></g></g></g><g fill="#000000" fill-opacity="1"><g transform="translate(43.955192, 18.850116)"><g/></g></g><g fill="#000000" fill-opacity="1"><g transform="translate(46.817422, 18.850116)"><g><path d="M 2.78125 -3.421875 C 3.289062 -3.421875 3.722656 -3.242188 4.078125 -2.890625 C 4.441406 -2.535156 4.625 -2.097656 4.625 -1.578125 C 4.625 -1.078125 4.441406 -0.648438 4.078125 -0.296875 C 3.722656 0.0546875 3.289062 0.234375 2.78125 0.234375 C 2.28125 0.234375 1.847656 0.0546875 1.484375 -0.296875 C 1.128906 -0.648438 0.953125 -1.078125 0.953125 -1.578125 C 0.953125 -2.097656 1.128906 -2.535156 1.484375 -2.890625 C 1.847656 -3.242188 2.28125 -3.421875 2.78125 -3.421875 Z M 2.78125 -3.421875 "/></g></g></g><g fill="#000000" fill-opacity="1"><g transform="translate(20.541348, 23.4798)"><g><path d="M 1.46875 -1.125 C 1.488281 -1.125 1.507812 -1.113281 1.53125 -1.09375 C 1.550781 -1.082031 1.5625 -1.0625 1.5625 -1.03125 C 1.5625 -1.019531 1.554688 -1.003906 1.546875 -0.984375 L 1.21875 -0.0625 C 1.21875 -0.0390625 1.207031 -0.0234375 1.1875 -0.015625 C 1.164062 -0.00390625 1.144531 0 1.125 0 C 1.082031 0 1.050781 -0.0195312 1.03125 -0.0625 L 0.8125 -0.640625 L 0.59375 -0.0625 C 0.59375 -0.0390625 0.582031 -0.0234375 0.5625 -0.015625 C 0.550781 -0.00390625 0.535156 0 0.515625 0 C 0.492188 0 0.472656 -0.00390625 0.453125 -0.015625 C 0.429688 -0.0234375 0.414062 -0.0390625 0.40625 -0.0625 L 0.078125 -0.984375 C 0.078125 -1.003906 0.078125 -1.019531 0.078125 -1.03125 C 0.078125 -1.0625 0.0820312 -1.082031 0.09375 -1.09375 C 0.113281 -1.113281 0.140625 -1.125 0.171875 -1.125 C 0.222656 -1.125 0.253906 -1.101562 0.265625 -1.0625 L 0.515625 -0.34375 L 0.71875 -0.875 C 0.738281 -0.914062 0.769531 -0.9375 0.8125 -0.9375 C 0.851562 -0.9375 0.882812 -0.914062 0.90625 -0.875 L 1.109375 -0.359375 L 1.359375 -1.0625 C 1.378906 -1.101562 1.414062 -1.125 1.46875 -1.125 Z M 1.46875 -1.125 "/></g></g></g><g fill="#000000" fill-opacity="1"><g transform="translate(23.563173, 23.4798)"><g><path d="M 1.21875 -0.5625 C 1.21875 -0.445312 1.191406 -0.34375 1.140625 -0.25 C 1.085938 -0.164062 1.019531 -0.0976562 0.9375 -0.046875 C 0.851562 -0.00390625 0.757812 0.015625 0.65625 0.015625 C 0.550781 0.015625 0.453125 -0.00390625 0.359375 -0.046875 C 0.273438 -0.0976562 0.207031 -0.164062 0.15625 -0.25 C 0.101562 -0.34375 0.078125 -0.445312 0.078125 -0.5625 C 0.078125 -0.675781 0.101562 -0.773438 0.15625 -0.859375 C 0.207031 -0.953125 0.273438 -1.019531 0.359375 -1.0625 C 0.453125 -1.113281 0.550781 -1.140625 0.65625 -1.140625 C 0.757812 -1.140625 0.851562 -1.113281 0.9375 -1.0625 C 1.019531 -1.019531 1.085938 -0.953125 1.140625 -0.859375 C 1.191406 -0.773438 1.21875 -0.675781 1.21875 -0.5625 Z M 1.015625 -0.5625 C 1.015625 -0.632812 0.992188 -0.703125 0.953125 -0.765625 C 0.921875 -0.828125 0.878906 -0.875 0.828125 -0.90625 C 0.773438 -0.9375 0.71875 -0.953125 0.65625 -0.953125 C 0.582031 -0.953125 0.519531 -0.9375 0.46875 -0.90625 C 0.414062 -0.875 0.367188 -0.828125 0.328125 -0.765625 C 0.296875 -0.703125 0.28125 -0.632812 0.28125 -0.5625 C 0.28125 -0.488281 0.296875 -0.421875 0.328125 -0.359375 C 0.367188 -0.296875 0.414062 -0.25 0.46875 -0.21875 C 0.519531 -0.1875 0.582031 -0.171875 0.65625 -0.171875 C 0.71875 -0.171875 0.773438 -0.1875 0.828125 -0.21875 C 0.878906 -0.25 0.921875 -0.296875 0.953125 -0.359375 C 0.992188 -0.421875 1.015625 -0.488281 1.015625 -0.5625 Z M 1.015625 -0.5625 "/></g></g></g><g fill="#000000" fill-opacity="1"><g transform="translate(26.253612, 23.4798)"><g><path d="M 0.703125 -1.140625 C 0.742188 -1.140625 0.773438 -1.128906 0.796875 -1.109375 C 0.828125 -1.097656 0.84375 -1.078125 0.84375 -1.046875 C 0.84375 -1.015625 0.832031 -0.988281 0.8125 -0.96875 C 0.800781 -0.945312 0.78125 -0.9375 0.75 -0.9375 C 0.738281 -0.9375 0.722656 -0.941406 0.703125 -0.953125 C 0.671875 -0.960938 0.644531 -0.96875 0.625 -0.96875 C 0.582031 -0.96875 0.539062 -0.953125 0.5 -0.921875 C 0.457031 -0.890625 0.421875 -0.847656 0.390625 -0.796875 C 0.367188 -0.742188 0.359375 -0.6875 0.359375 -0.625 L 0.359375 -0.109375 C 0.359375 -0.078125 0.347656 -0.0507812 0.328125 -0.03125 C 0.304688 -0.0078125 0.28125 0 0.25 0 C 0.21875 0 0.191406 -0.0078125 0.171875 -0.03125 C 0.160156 -0.0507812 0.15625 -0.078125 0.15625 -0.109375 L 0.15625 -1.015625 C 0.15625 -1.046875 0.160156 -1.070312 0.171875 -1.09375 C 0.191406 -1.113281 0.21875 -1.125 0.25 -1.125 C 0.28125 -1.125 0.304688 -1.113281 0.328125 -1.09375 C 0.347656 -1.070312 0.359375 -1.046875 0.359375 -1.015625 L 0.359375 -0.90625 C 0.390625 -0.976562 0.4375 -1.035156 0.5 -1.078125 C 0.5625 -1.117188 0.628906 -1.140625 0.703125 -1.140625 Z M 0.703125 -1.140625 "/></g></g></g><g fill="#000000" fill-opacity="1"><g transform="translate(28.531421, 23.4798)"><g><path d="M 1.0625 -0.171875 C 1.082031 -0.148438 1.09375 -0.128906 1.09375 -0.109375 C 1.09375 -0.078125 1.082031 -0.0507812 1.0625 -0.03125 C 1.039062 -0.0078125 1.019531 0 1 0 C 0.96875 0 0.941406 -0.0078125 0.921875 -0.03125 L 0.5 -0.484375 L 0.375 -0.375 L 0.375 -0.109375 C 0.375 -0.078125 0.363281 -0.0507812 0.34375 -0.03125 C 0.320312 -0.0078125 0.296875 0 0.265625 0 C 0.242188 0 0.222656 -0.0078125 0.203125 -0.03125 C 0.179688 -0.0507812 0.171875 -0.078125 0.171875 -0.109375 L 0.171875 -1.484375 C 0.171875 -1.515625 0.179688 -1.535156 0.203125 -1.546875 C 0.222656 -1.566406 0.242188 -1.578125 0.265625 -1.578125 C 0.296875 -1.578125 0.320312 -1.566406 0.34375 -1.546875 C 0.363281 -1.535156 0.375 -1.515625 0.375 -1.484375 L 0.375 -0.609375 L 0.890625 -1.09375 C 0.921875 -1.113281 0.945312 -1.125 0.96875 -1.125 C 1 -1.125 1.019531 -1.113281 1.03125 -1.09375 C 1.050781 -1.070312 1.0625 -1.050781 1.0625 -1.03125 C 1.0625 -1 1.050781 -0.972656 1.03125 -0.953125 L 0.65625 -0.625 Z M 1.0625 -0.171875 "/></g></g></g><g fill="#000000" fill-opacity="1"><g transform="translate(31.112822, 23.4798)"><g><path d="M 0.09375 -0.171875 C 0.0703125 -0.191406 0.0625 -0.210938 0.0625 -0.234375 C 0.0625 -0.265625 0.078125 -0.289062 0.109375 -0.3125 C 0.128906 -0.320312 0.144531 -0.328125 0.15625 -0.328125 C 0.1875 -0.328125 0.210938 -0.3125 0.234375 -0.28125 C 0.273438 -0.238281 0.316406 -0.203125 0.359375 -0.171875 C 0.410156 -0.148438 0.472656 -0.140625 0.546875 -0.140625 C 0.597656 -0.140625 0.644531 -0.148438 0.6875 -0.171875 C 0.726562 -0.203125 0.75 -0.242188 0.75 -0.296875 C 0.75 -0.347656 0.726562 -0.382812 0.6875 -0.40625 C 0.644531 -0.425781 0.582031 -0.453125 0.5 -0.484375 C 0.425781 -0.503906 0.363281 -0.523438 0.3125 -0.546875 C 0.257812 -0.566406 0.210938 -0.597656 0.171875 -0.640625 C 0.140625 -0.691406 0.125 -0.753906 0.125 -0.828125 C 0.125 -0.890625 0.140625 -0.941406 0.171875 -0.984375 C 0.210938 -1.035156 0.257812 -1.070312 0.3125 -1.09375 C 0.375 -1.125 0.441406 -1.140625 0.515625 -1.140625 C 0.585938 -1.140625 0.65625 -1.125 0.71875 -1.09375 C 0.789062 -1.070312 0.847656 -1.035156 0.890625 -0.984375 C 0.898438 -0.972656 0.90625 -0.953125 0.90625 -0.921875 C 0.90625 -0.898438 0.894531 -0.878906 0.875 -0.859375 C 0.863281 -0.847656 0.847656 -0.84375 0.828125 -0.84375 C 0.796875 -0.84375 0.773438 -0.851562 0.765625 -0.875 C 0.734375 -0.90625 0.695312 -0.925781 0.65625 -0.9375 C 0.613281 -0.957031 0.5625 -0.96875 0.5 -0.96875 C 0.445312 -0.96875 0.398438 -0.957031 0.359375 -0.9375 C 0.328125 -0.914062 0.3125 -0.878906 0.3125 -0.828125 C 0.3125 -0.773438 0.332031 -0.738281 0.375 -0.71875 C 0.414062 -0.695312 0.484375 -0.675781 0.578125 -0.65625 C 0.648438 -0.632812 0.707031 -0.609375 0.75 -0.578125 C 0.800781 -0.554688 0.84375 -0.523438 0.875 -0.484375 C 0.914062 -0.441406 0.9375 -0.382812 0.9375 -0.3125 C 0.9375 -0.238281 0.914062 -0.175781 0.875 -0.125 C 0.84375 -0.0820312 0.796875 -0.046875 0.734375 -0.015625 C 0.671875 0.00390625 0.601562 0.015625 0.53125 0.015625 C 0.4375 0.015625 0.351562 0 0.28125 -0.03125 C 0.207031 -0.0625 0.144531 -0.109375 0.09375 -0.171875 Z M 0.09375 -0.171875 "/></g></g></g></svg>