<svg width="72" height="40" viewBox="0 0 72 40" fill="none" xmlns="http://www.w3.org/2000/svg">
<path d="M15.9164 14.196L10.708 19.4252L16.4164 25.1335H11.5622L7.18721 20.7585V25.1335H3.39555V6.77932H7.18721V18.0085L10.9997 14.196H15.9164Z" fill="black"/>
<path d="M26.2488 20.1752H18.3113C18.3113 20.9564 18.5613 21.5293 19.0613 21.9043C19.5613 22.2689 20.103 22.446 20.6863 22.446C21.2957 22.446 21.7749 22.3627 22.1238 22.196C22.4832 22.0293 22.8947 21.7116 23.353 21.2377L26.0822 22.5918C24.9415 24.4981 23.0457 25.446 20.3947 25.446C18.754 25.446 17.3426 24.8835 16.1655 23.7585C14.9832 22.6335 14.3947 21.2741 14.3947 19.6752C14.3947 18.0814 14.9832 16.7116 16.1655 15.571C17.3426 14.4356 18.754 13.8627 20.3947 13.8627C22.129 13.8627 23.5405 14.3731 24.6238 15.3835C25.7176 16.3835 26.2697 17.8158 26.2697 19.6752C26.2697 19.9252 26.2592 20.0918 26.2488 20.1752ZM18.4155 18.0918H22.5822C22.4988 17.5241 22.2697 17.0866 21.8947 16.7793C21.5301 16.4772 21.0665 16.321 20.4988 16.321C19.8738 16.321 19.3738 16.4877 18.9988 16.821C18.6342 17.1439 18.4415 17.5658 18.4155 18.0918Z" fill="black"/>
<path d="M26.3935 8.09182C26.8362 7.64911 27.3623 7.42516 27.9769 7.42516C28.5862 7.42516 29.1071 7.64911 29.5394 8.09182C29.9821 8.53974 30.206 9.06578 30.206 9.67516C30.206 10.2897 29.9821 10.8158 29.5394 11.2585C29.1071 11.6908 28.5862 11.9043 27.9769 11.9043C27.3623 11.9043 26.8362 11.6908 26.3935 11.2585C25.9456 10.8158 25.7269 10.2897 25.7269 9.67516C25.7269 9.06578 25.9456 8.53974 26.3935 8.09182ZM26.0185 14.196V25.1335H29.8102V14.196H26.0185Z" fill="black"/>
<path d="M41.0365 14.196L35.6199 22.2585H40.6199V25.1335H29.2865L34.7032 17.071H30.1824V14.196H41.0365Z" fill="black"/>
<path d="M51.494 20.1752H43.5565C43.5565 20.9564 43.8065 21.5293 44.3065 21.9043C44.8065 22.2689 45.3482 22.446 45.9315 22.446C46.5409 22.446 47.02 22.3627 47.369 22.196C47.7284 22.0293 48.1398 21.7116 48.5982 21.2377L51.3273 22.5918C50.1867 24.4981 48.2909 25.446 45.6398 25.446C43.9992 25.446 42.5877 24.8835 41.4107 23.7585C40.2284 22.6335 39.6398 21.2741 39.6398 19.6752C39.6398 18.0814 40.2284 16.7116 41.4107 15.571C42.5877 14.4356 43.9992 13.8627 45.6398 13.8627C47.3742 13.8627 48.7857 14.3731 49.869 15.3835C50.9627 16.3835 51.5148 17.8158 51.5148 19.6752C51.5148 19.9252 51.5044 20.0918 51.494 20.1752ZM43.6607 18.0918H47.8273C47.744 17.5241 47.5148 17.0866 47.1398 16.7793C46.7752 16.4772 46.3117 16.321 45.744 16.321C45.119 16.321 44.619 16.4877 44.244 16.821C43.8794 17.1439 43.6867 17.5658 43.6607 18.0918Z" fill="black"/>
<path d="M51.2637 25.1335V14.196H55.0553V15.7585H55.097C55.1231 15.7064 55.1647 15.6335 55.222 15.5502C55.2897 15.4668 55.4303 15.321 55.6387 15.1127C55.8574 14.8939 56.0866 14.696 56.3262 14.5293C56.5762 14.3627 56.8887 14.2116 57.2637 14.071C57.6491 13.9356 58.0449 13.8627 58.4512 13.8627C58.8522 13.8627 59.2533 13.9252 59.6595 14.0502C60.0606 14.1647 60.3522 14.2741 60.5345 14.3835L60.8262 14.5502L59.2428 17.7585C58.7845 17.3574 58.1283 17.1543 57.2845 17.1543C56.8262 17.1543 56.4303 17.2585 56.097 17.4668C55.7741 17.6647 55.5449 17.9043 55.4095 18.196C55.2845 18.4772 55.1908 18.7116 55.1387 18.9043C55.0814 19.1022 55.0553 19.2585 55.0553 19.3835V25.1335H51.2637Z" fill="black"/>
<path d="M66.1316 20.571C66.8086 20.571 67.3868 20.8106 67.8607 21.2793C68.3451 21.7533 68.5899 22.3366 68.5899 23.0293C68.5899 23.696 68.3451 24.2689 67.8607 24.7377C67.3868 25.2064 66.8086 25.446 66.1316 25.446C65.4649 25.446 64.8868 25.2064 64.4024 24.7377C63.9284 24.2689 63.6941 23.696 63.6941 23.0293C63.6941 22.3366 63.9284 21.7533 64.4024 21.2793C64.8868 20.8106 65.4649 20.571 66.1316 20.571Z" fill="black"/>
<path d="M29.3468 29.8064C29.3728 29.8064 29.3989 29.822 29.4301 29.8481C29.4562 29.8637 29.4718 29.8897 29.4718 29.9314C29.4718 29.947 29.4614 29.9679 29.451 29.9939L29.0135 31.2231C29.0135 31.2543 28.9978 31.2751 28.9718 31.2856C28.9405 31.3012 28.9145 31.3064 28.8885 31.3064C28.8312 31.3064 28.7895 31.2804 28.7635 31.2231L28.4718 30.4522L28.1801 31.2231C28.1801 31.2543 28.1645 31.2751 28.1385 31.2856C28.1228 31.3012 28.102 31.3064 28.076 31.3064C28.0447 31.3064 28.0187 31.3012 27.9926 31.2856C27.9614 31.2751 27.9405 31.2543 27.9301 31.2231L27.4926 29.9939C27.4926 29.9679 27.4926 29.947 27.4926 29.9314C27.4926 29.8897 27.4978 29.8637 27.5135 29.8481C27.5395 29.822 27.576 29.8064 27.6176 29.8064C27.6853 29.8064 27.727 29.8376 27.7426 29.8897L28.076 30.8481L28.3468 30.1397C28.3728 30.0876 28.4145 30.0564 28.4718 30.0564C28.5239 30.0564 28.5655 30.0876 28.5968 30.1397L28.8676 30.8272L29.201 29.8897C29.227 29.8376 29.2739 29.8064 29.3468 29.8064Z" fill="black"/>
<path d="M33.0426 30.5564C33.0426 30.7126 33.0061 30.8481 32.9384 30.9731C32.8655 31.0876 32.7769 31.1762 32.6676 31.2439C32.553 31.3012 32.428 31.3272 32.2926 31.3272C32.1519 31.3272 32.0217 31.3012 31.8967 31.2439C31.7821 31.1762 31.6936 31.0876 31.6259 30.9731C31.553 30.8481 31.5217 30.7126 31.5217 30.5564C31.5217 30.4054 31.553 30.2751 31.6259 30.1606C31.6936 30.0356 31.7821 29.947 31.8967 29.8897C32.0217 29.822 32.1519 29.7856 32.2926 29.7856C32.428 29.7856 32.553 29.822 32.6676 29.8897C32.7769 29.947 32.8655 30.0356 32.9384 30.1606C33.0061 30.2751 33.0426 30.4054 33.0426 30.5564ZM32.7717 30.5564C32.7717 30.4626 32.7405 30.3689 32.6884 30.2856C32.6467 30.2022 32.5894 30.1397 32.5217 30.0981C32.4488 30.0564 32.3759 30.0356 32.2926 30.0356C32.1936 30.0356 32.1103 30.0564 32.0426 30.0981C31.9696 30.1397 31.9071 30.2022 31.8551 30.2856C31.8134 30.3689 31.7926 30.4626 31.7926 30.5564C31.7926 30.6554 31.8134 30.7439 31.8551 30.8272C31.9071 30.9106 31.9696 30.9731 32.0426 31.0147C32.1103 31.0564 32.1936 31.0772 32.2926 31.0772C32.3759 31.0772 32.4488 31.0564 32.5217 31.0147C32.5894 30.9731 32.6467 30.9106 32.6884 30.8272C32.7405 30.7439 32.7717 30.6554 32.7717 30.5564Z" fill="black"/>
<path d="M35.9423 29.7856C35.9944 29.7856 36.0361 29.8012 36.0673 29.8272C36.109 29.8429 36.1298 29.8689 36.1298 29.9106C36.1298 29.9522 36.1142 29.9887 36.0881 30.0147C36.0725 30.046 36.0465 30.0564 36.0048 30.0564C35.9892 30.0564 35.9684 30.0512 35.9423 30.0356C35.9006 30.0251 35.8642 30.0147 35.8381 30.0147C35.7809 30.0147 35.7236 30.0356 35.6715 30.0772C35.6142 30.1189 35.5673 30.1762 35.5257 30.2439C35.4944 30.3168 35.484 30.3897 35.484 30.4731V31.1606C35.484 31.2022 35.4684 31.2387 35.4423 31.2647C35.4111 31.296 35.3798 31.3064 35.3382 31.3064C35.2965 31.3064 35.26 31.296 35.234 31.2647C35.2184 31.2387 35.2132 31.2022 35.2132 31.1606V29.9522C35.2132 29.9106 35.2184 29.8793 35.234 29.8481C35.26 29.822 35.2965 29.8064 35.3382 29.8064C35.3798 29.8064 35.4111 29.822 35.4423 29.8481C35.4684 29.8793 35.484 29.9106 35.484 29.9522V30.0981C35.5257 30.0043 35.5882 29.9262 35.6715 29.8689C35.7548 29.8168 35.8434 29.7856 35.9423 29.7856Z" fill="black"/>
<path d="M39.4586 31.0772C39.4846 31.1085 39.5002 31.1345 39.5002 31.1606C39.5002 31.2022 39.4846 31.2387 39.4586 31.2647C39.4273 31.296 39.4013 31.3064 39.3752 31.3064C39.3336 31.3064 39.2971 31.296 39.2711 31.2647L38.7086 30.6606L38.5419 30.8064V31.1606C38.5419 31.2022 38.5263 31.2387 38.5002 31.2647C38.469 31.296 38.4377 31.3064 38.3961 31.3064C38.3648 31.3064 38.3388 31.296 38.3127 31.2647C38.2815 31.2387 38.2711 31.2022 38.2711 31.1606V29.3272C38.2711 29.2856 38.2815 29.2595 38.3127 29.2439C38.3388 29.2179 38.3648 29.2022 38.3961 29.2022C38.4377 29.2022 38.469 29.2179 38.5002 29.2439C38.5263 29.2595 38.5419 29.2856 38.5419 29.3272V30.4939L39.2294 29.8481C39.2711 29.822 39.3023 29.8064 39.3336 29.8064C39.3752 29.8064 39.4013 29.822 39.4169 29.8481C39.4429 29.8793 39.4586 29.9054 39.4586 29.9314C39.4586 29.9731 39.4429 30.0095 39.4169 30.0356L38.9169 30.4731L39.4586 31.0772Z" fill="black"/>
<path d="M41.6088 31.0772C41.5775 31.0512 41.5671 31.0251 41.5671 30.9939C41.5671 30.9522 41.5879 30.921 41.6296 30.8897C41.6556 30.8793 41.6765 30.8689 41.6921 30.8689C41.7338 30.8689 41.765 30.8897 41.7963 30.9314C41.8483 30.9887 41.9056 31.0356 41.9629 31.0772C42.0306 31.1085 42.114 31.1189 42.2129 31.1189C42.2806 31.1189 42.3431 31.1085 42.4004 31.0772C42.4525 31.0356 42.4838 30.9835 42.4838 30.9106C42.4838 30.8429 42.4525 30.796 42.4004 30.7647C42.3431 30.7387 42.2598 30.7022 42.1504 30.6606C42.0515 30.6345 41.9681 30.6085 41.9004 30.5772C41.8275 30.5512 41.765 30.5095 41.7129 30.4522C41.6713 30.3845 41.6504 30.3012 41.6504 30.2022C41.6504 30.1189 41.6713 30.0512 41.7129 29.9939C41.765 29.9262 41.8275 29.8793 41.9004 29.8481C41.9838 29.8064 42.0723 29.7856 42.1713 29.7856C42.265 29.7856 42.3588 29.8064 42.4421 29.8481C42.5358 29.8793 42.614 29.9262 42.6713 29.9939C42.6817 30.0095 42.6921 30.0356 42.6921 30.0772C42.6921 30.1085 42.6765 30.1345 42.6504 30.1606C42.6348 30.1762 42.614 30.1814 42.5879 30.1814C42.5463 30.1814 42.515 30.171 42.5046 30.1397C42.4629 30.0981 42.4108 30.072 42.3588 30.0564C42.3015 30.0304 42.2338 30.0147 42.1504 30.0147C42.0775 30.0147 42.015 30.0304 41.9629 30.0564C41.9213 30.0876 41.9004 30.1345 41.9004 30.2022C41.9004 30.2751 41.9265 30.322 41.9838 30.3481C42.0358 30.3793 42.1296 30.4054 42.2546 30.4314C42.3483 30.4626 42.4265 30.4939 42.4838 30.5356C42.5515 30.5668 42.6088 30.6085 42.6504 30.6606C42.7025 30.7179 42.7338 30.796 42.7338 30.8897C42.7338 30.9887 42.7025 31.072 42.6504 31.1397C42.6088 31.197 42.5463 31.2439 42.4629 31.2856C42.3796 31.3116 42.2858 31.3272 42.1921 31.3272C42.0671 31.3272 41.9525 31.3064 41.8588 31.2647C41.7598 31.2231 41.6765 31.1606 41.6088 31.0772Z" fill="black"/>
</svg>
