<svg width="66" height="20" viewBox="0 0 66 20" fill="none" xmlns="http://www.w3.org/2000/svg">
<path d="M12.9164 8.19599L7.70805 13.4252L13.4164 19.1335H8.56221L4.18721 14.7585V19.1335H0.395546V0.77932H4.18721V12.0085L7.99971 8.19599H12.9164Z" fill="black"/>
<path d="M23.2488 14.1752H15.3113C15.3113 14.9564 15.5613 15.5293 16.0613 15.9043C16.5613 16.2689 17.103 16.446 17.6863 16.446C18.2957 16.446 18.7749 16.3627 19.1238 16.196C19.4832 16.0293 19.8947 15.7116 20.353 15.2377L23.0822 16.5918C21.9415 18.4981 20.0457 19.446 17.3947 19.446C15.754 19.446 14.3426 18.8835 13.1655 17.7585C11.9832 16.6335 11.3947 15.2741 11.3947 13.6752C11.3947 12.0814 11.9832 10.7116 13.1655 9.57099C14.3426 8.43557 15.754 7.86266 17.3947 7.86266C19.129 7.86266 20.5405 8.37307 21.6238 9.38349C22.7176 10.3835 23.2697 11.8158 23.2697 13.6752C23.2697 13.9252 23.2592 14.0918 23.2488 14.1752ZM15.4155 12.0918H19.5822C19.4988 11.5241 19.2697 11.0866 18.8947 10.7793C18.5301 10.4772 18.0665 10.321 17.4988 10.321C16.8738 10.321 16.3738 10.4877 15.9988 10.821C15.6342 11.1439 15.4415 11.5658 15.4155 12.0918Z" fill="black"/>
<path d="M23.3935 2.09182C23.8362 1.64911 24.3623 1.42516 24.9769 1.42516C25.5862 1.42516 26.1071 1.64911 26.5394 2.09182C26.9821 2.53974 27.206 3.06578 27.206 3.67516C27.206 4.28974 26.9821 4.81578 26.5394 5.25849C26.1071 5.69078 25.5862 5.90432 24.9769 5.90432C24.3623 5.90432 23.8362 5.69078 23.3935 5.25849C22.9456 4.81578 22.7269 4.28974 22.7269 3.67516C22.7269 3.06578 22.9456 2.53974 23.3935 2.09182ZM23.0185 8.19599V19.1335H26.8102V8.19599H23.0185Z" fill="black"/>
<path d="M38.0365 8.19599L32.6199 16.2585H37.6199V19.1335H26.2865L31.7032 11.071H27.1824V8.19599H38.0365Z" fill="black"/>
<path d="M48.494 14.1752H40.5565C40.5565 14.9564 40.8065 15.5293 41.3065 15.9043C41.8065 16.2689 42.3482 16.446 42.9315 16.446C43.5409 16.446 44.02 16.3627 44.369 16.196C44.7284 16.0293 45.1398 15.7116 45.5982 15.2377L48.3273 16.5918C47.1867 18.4981 45.2909 19.446 42.6398 19.446C40.9992 19.446 39.5877 18.8835 38.4107 17.7585C37.2284 16.6335 36.6398 15.2741 36.6398 13.6752C36.6398 12.0814 37.2284 10.7116 38.4107 9.57099C39.5877 8.43557 40.9992 7.86266 42.6398 7.86266C44.3742 7.86266 45.7857 8.37307 46.869 9.38349C47.9627 10.3835 48.5148 11.8158 48.5148 13.6752C48.5148 13.9252 48.5044 14.0918 48.494 14.1752ZM40.6607 12.0918H44.8273C44.744 11.5241 44.5148 11.0866 44.1398 10.7793C43.7752 10.4772 43.3117 10.321 42.744 10.321C42.119 10.321 41.619 10.4877 41.244 10.821C40.8794 11.1439 40.6867 11.5658 40.6607 12.0918Z" fill="black"/>
<path d="M48.2637 19.1335V8.19599H52.0553V9.75849H52.097C52.1231 9.70641 52.1647 9.63349 52.222 9.55016C52.2897 9.46682 52.4303 9.32099 52.6387 9.11266C52.8574 8.8939 53.0866 8.69599 53.3262 8.52932C53.5762 8.36266 53.8887 8.21161 54.2637 8.07099C54.6491 7.93557 55.0449 7.86266 55.4512 7.86266C55.8522 7.86266 56.2533 7.92516 56.6595 8.05016C57.0606 8.16474 57.3522 8.27411 57.5345 8.38349L57.8262 8.55016L56.2428 11.7585C55.7845 11.3574 55.1283 11.1543 54.2845 11.1543C53.8262 11.1543 53.4303 11.2585 53.097 11.4668C52.7741 11.6647 52.5449 11.9043 52.4095 12.196C52.2845 12.4772 52.1908 12.7116 52.1387 12.9043C52.0814 13.1022 52.0553 13.2585 52.0553 13.3835V19.1335H48.2637Z" fill="black"/>
<path d="M63.1316 14.571C63.8086 14.571 64.3868 14.8106 64.8607 15.2793C65.3451 15.7533 65.5899 16.3366 65.5899 17.0293C65.5899 17.696 65.3451 18.2689 64.8607 18.7377C64.3868 19.2064 63.8086 19.446 63.1316 19.446C62.4649 19.446 61.8868 19.2064 61.4024 18.7377C60.9284 18.2689 60.6941 17.696 60.6941 17.0293C60.6941 16.3366 60.9284 15.7533 61.4024 15.2793C61.8868 14.8106 62.4649 14.571 63.1316 14.571Z" fill="black"/>
</svg>
