<svg width="66" height="26" viewBox="0 0 66 26" fill="none" xmlns="http://www.w3.org/2000/svg">
<path d="M12.9164 8.19599L7.70805 13.4252L13.4164 19.1335H8.56221L4.18721 14.7585V19.1335H0.395546V0.77932H4.18721V12.0085L7.99971 8.19599H12.9164Z" fill="black"/>
<path d="M23.2488 14.1752H15.3113C15.3113 14.9564 15.5613 15.5293 16.0613 15.9043C16.5613 16.2689 17.103 16.446 17.6863 16.446C18.2957 16.446 18.7749 16.3627 19.1238 16.196C19.4832 16.0293 19.8947 15.7116 20.353 15.2377L23.0822 16.5918C21.9415 18.4981 20.0457 19.446 17.3947 19.446C15.754 19.446 14.3426 18.8835 13.1655 17.7585C11.9832 16.6335 11.3947 15.2741 11.3947 13.6752C11.3947 12.0814 11.9832 10.7116 13.1655 9.57099C14.3426 8.43557 15.754 7.86266 17.3947 7.86266C19.129 7.86266 20.5405 8.37307 21.6238 9.38349C22.7176 10.3835 23.2697 11.8158 23.2697 13.6752C23.2697 13.9252 23.2592 14.0918 23.2488 14.1752ZM15.4155 12.0918H19.5822C19.4988 11.5241 19.2697 11.0866 18.8947 10.7793C18.5301 10.4772 18.0665 10.321 17.4988 10.321C16.8738 10.321 16.3738 10.4877 15.9988 10.821C15.6342 11.1439 15.4415 11.5658 15.4155 12.0918Z" fill="black"/>
<path d="M23.3935 2.09182C23.8362 1.64911 24.3623 1.42516 24.9769 1.42516C25.5862 1.42516 26.1071 1.64911 26.5394 2.09182C26.9821 2.53974 27.206 3.06578 27.206 3.67516C27.206 4.28974 26.9821 4.81578 26.5394 5.25849C26.1071 5.69078 25.5862 5.90432 24.9769 5.90432C24.3623 5.90432 23.8362 5.69078 23.3935 5.25849C22.9456 4.81578 22.7269 4.28974 22.7269 3.67516C22.7269 3.06578 22.9456 2.53974 23.3935 2.09182ZM23.0185 8.19599V19.1335H26.8102V8.19599H23.0185Z" fill="black"/>
<path d="M38.0365 8.19599L32.6199 16.2585H37.6199V19.1335H26.2865L31.7032 11.071H27.1824V8.19599H38.0365Z" fill="black"/>
<path d="M48.494 14.1752H40.5565C40.5565 14.9564 40.8065 15.5293 41.3065 15.9043C41.8065 16.2689 42.3482 16.446 42.9315 16.446C43.5409 16.446 44.02 16.3627 44.369 16.196C44.7284 16.0293 45.1398 15.7116 45.5982 15.2377L48.3273 16.5918C47.1867 18.4981 45.2909 19.446 42.6398 19.446C40.9992 19.446 39.5877 18.8835 38.4107 17.7585C37.2284 16.6335 36.6398 15.2741 36.6398 13.6752C36.6398 12.0814 37.2284 10.7116 38.4107 9.57099C39.5877 8.43557 40.9992 7.86266 42.6398 7.86266C44.3742 7.86266 45.7857 8.37307 46.869 9.38349C47.9627 10.3835 48.5148 11.8158 48.5148 13.6752C48.5148 13.9252 48.5044 14.0918 48.494 14.1752ZM40.6607 12.0918H44.8273C44.744 11.5241 44.5148 11.0866 44.1398 10.7793C43.7752 10.4772 43.3117 10.321 42.744 10.321C42.119 10.321 41.619 10.4877 41.244 10.821C40.8794 11.1439 40.6867 11.5658 40.6607 12.0918Z" fill="black"/>
<path d="M48.2637 19.1335V8.19599H52.0553V9.75849H52.097C52.1231 9.70641 52.1647 9.63349 52.222 9.55016C52.2897 9.46682 52.4303 9.32099 52.6387 9.11266C52.8574 8.8939 53.0866 8.69599 53.3262 8.52932C53.5762 8.36266 53.8887 8.21161 54.2637 8.07099C54.6491 7.93557 55.0449 7.86266 55.4512 7.86266C55.8522 7.86266 56.2533 7.92516 56.6595 8.05016C57.0606 8.16474 57.3522 8.27411 57.5345 8.38349L57.8262 8.55016L56.2428 11.7585C55.7845 11.3574 55.1283 11.1543 54.2845 11.1543C53.8262 11.1543 53.4303 11.2585 53.097 11.4668C52.7741 11.6647 52.5449 11.9043 52.4095 12.196C52.2845 12.4772 52.1908 12.7116 52.1387 12.9043C52.0814 13.1022 52.0553 13.2585 52.0553 13.3835V19.1335H48.2637Z" fill="black"/>
<path d="M63.1316 14.571C63.8086 14.571 64.3868 14.8106 64.8607 15.2793C65.3451 15.7533 65.5899 16.3366 65.5899 17.0293C65.5899 17.696 65.3451 18.2689 64.8607 18.7377C64.3868 19.2064 63.8086 19.446 63.1316 19.446C62.4649 19.446 61.8868 19.2064 61.4024 18.7377C60.9284 18.2689 60.6941 17.696 60.6941 17.0293C60.6941 16.3366 60.9284 15.7533 61.4024 15.2793C61.8868 14.8106 62.4649 14.571 63.1316 14.571Z" fill="black"/>
<path d="M26.3468 23.8064C26.3728 23.8064 26.3989 23.822 26.4301 23.8481C26.4562 23.8637 26.4718 23.8897 26.4718 23.9314C26.4718 23.947 26.4614 23.9679 26.451 23.9939L26.0135 25.2231C26.0135 25.2543 25.9978 25.2751 25.9718 25.2856C25.9405 25.3012 25.9145 25.3064 25.8885 25.3064C25.8312 25.3064 25.7895 25.2804 25.7635 25.2231L25.4718 24.4522L25.1801 25.2231C25.1801 25.2543 25.1645 25.2751 25.1385 25.2856C25.1228 25.3012 25.102 25.3064 25.076 25.3064C25.0447 25.3064 25.0187 25.3012 24.9926 25.2856C24.9614 25.2751 24.9405 25.2543 24.9301 25.2231L24.4926 23.9939C24.4926 23.9679 24.4926 23.947 24.4926 23.9314C24.4926 23.8897 24.4978 23.8637 24.5135 23.8481C24.5395 23.822 24.576 23.8064 24.6176 23.8064C24.6853 23.8064 24.727 23.8376 24.7426 23.8897L25.076 24.8481L25.3468 24.1397C25.3728 24.0876 25.4145 24.0564 25.4718 24.0564C25.5239 24.0564 25.5655 24.0876 25.5968 24.1397L25.8676 24.8272L26.201 23.8897C26.227 23.8376 26.2739 23.8064 26.3468 23.8064Z" fill="black"/>
<path d="M30.0426 24.5564C30.0426 24.7126 30.0061 24.8481 29.9384 24.9731C29.8655 25.0876 29.7769 25.1762 29.6676 25.2439C29.553 25.3012 29.428 25.3272 29.2926 25.3272C29.1519 25.3272 29.0217 25.3012 28.8967 25.2439C28.7821 25.1762 28.6936 25.0876 28.6259 24.9731C28.553 24.8481 28.5217 24.7126 28.5217 24.5564C28.5217 24.4054 28.553 24.2751 28.6259 24.1606C28.6936 24.0356 28.7821 23.947 28.8967 23.8897C29.0217 23.822 29.1519 23.7856 29.2926 23.7856C29.428 23.7856 29.553 23.822 29.6676 23.8897C29.7769 23.947 29.8655 24.0356 29.9384 24.1606C30.0061 24.2751 30.0426 24.4054 30.0426 24.5564ZM29.7717 24.5564C29.7717 24.4626 29.7405 24.3689 29.6884 24.2856C29.6467 24.2022 29.5894 24.1397 29.5217 24.0981C29.4488 24.0564 29.3759 24.0356 29.2926 24.0356C29.1936 24.0356 29.1103 24.0564 29.0426 24.0981C28.9696 24.1397 28.9071 24.2022 28.8551 24.2856C28.8134 24.3689 28.7926 24.4626 28.7926 24.5564C28.7926 24.6554 28.8134 24.7439 28.8551 24.8272C28.9071 24.9106 28.9696 24.9731 29.0426 25.0147C29.1103 25.0564 29.1936 25.0772 29.2926 25.0772C29.3759 25.0772 29.4488 25.0564 29.5217 25.0147C29.5894 24.9731 29.6467 24.9106 29.6884 24.8272C29.7405 24.7439 29.7717 24.6554 29.7717 24.5564Z" fill="black"/>
<path d="M32.9423 23.7856C32.9944 23.7856 33.0361 23.8012 33.0673 23.8272C33.109 23.8429 33.1298 23.8689 33.1298 23.9106C33.1298 23.9522 33.1142 23.9887 33.0881 24.0147C33.0725 24.046 33.0465 24.0564 33.0048 24.0564C32.9892 24.0564 32.9684 24.0512 32.9423 24.0356C32.9006 24.0251 32.8642 24.0147 32.8381 24.0147C32.7809 24.0147 32.7236 24.0356 32.6715 24.0772C32.6142 24.1189 32.5673 24.1762 32.5257 24.2439C32.4944 24.3168 32.484 24.3897 32.484 24.4731V25.1606C32.484 25.2022 32.4684 25.2387 32.4423 25.2647C32.4111 25.296 32.3798 25.3064 32.3382 25.3064C32.2965 25.3064 32.26 25.296 32.234 25.2647C32.2184 25.2387 32.2132 25.2022 32.2132 25.1606V23.9522C32.2132 23.9106 32.2184 23.8793 32.234 23.8481C32.26 23.822 32.2965 23.8064 32.3382 23.8064C32.3798 23.8064 32.4111 23.822 32.4423 23.8481C32.4684 23.8793 32.484 23.9106 32.484 23.9522V24.0981C32.5257 24.0043 32.5882 23.9262 32.6715 23.8689C32.7548 23.8168 32.8434 23.7856 32.9423 23.7856Z" fill="black"/>
<path d="M36.4586 25.0772C36.4846 25.1085 36.5002 25.1345 36.5002 25.1606C36.5002 25.2022 36.4846 25.2387 36.4586 25.2647C36.4273 25.296 36.4013 25.3064 36.3752 25.3064C36.3336 25.3064 36.2971 25.296 36.2711 25.2647L35.7086 24.6606L35.5419 24.8064V25.1606C35.5419 25.2022 35.5263 25.2387 35.5002 25.2647C35.469 25.296 35.4377 25.3064 35.3961 25.3064C35.3648 25.3064 35.3388 25.296 35.3127 25.2647C35.2815 25.2387 35.2711 25.2022 35.2711 25.1606V23.3272C35.2711 23.2856 35.2815 23.2595 35.3127 23.2439C35.3388 23.2179 35.3648 23.2022 35.3961 23.2022C35.4377 23.2022 35.469 23.2179 35.5002 23.2439C35.5263 23.2595 35.5419 23.2856 35.5419 23.3272V24.4939L36.2294 23.8481C36.2711 23.822 36.3023 23.8064 36.3336 23.8064C36.3752 23.8064 36.4013 23.822 36.4169 23.8481C36.4429 23.8793 36.4586 23.9054 36.4586 23.9314C36.4586 23.9731 36.4429 24.0095 36.4169 24.0356L35.9169 24.4731L36.4586 25.0772Z" fill="black"/>
<path d="M38.6088 25.0772C38.5775 25.0512 38.5671 25.0251 38.5671 24.9939C38.5671 24.9522 38.5879 24.921 38.6296 24.8897C38.6556 24.8793 38.6765 24.8689 38.6921 24.8689C38.7338 24.8689 38.765 24.8897 38.7963 24.9314C38.8483 24.9887 38.9056 25.0356 38.9629 25.0772C39.0306 25.1085 39.114 25.1189 39.2129 25.1189C39.2806 25.1189 39.3431 25.1085 39.4004 25.0772C39.4525 25.0356 39.4838 24.9835 39.4838 24.9106C39.4838 24.8429 39.4525 24.796 39.4004 24.7647C39.3431 24.7387 39.2598 24.7022 39.1504 24.6606C39.0515 24.6345 38.9681 24.6085 38.9004 24.5772C38.8275 24.5512 38.765 24.5095 38.7129 24.4522C38.6713 24.3845 38.6504 24.3012 38.6504 24.2022C38.6504 24.1189 38.6713 24.0512 38.7129 23.9939C38.765 23.9262 38.8275 23.8793 38.9004 23.8481C38.9838 23.8064 39.0723 23.7856 39.1713 23.7856C39.265 23.7856 39.3588 23.8064 39.4421 23.8481C39.5358 23.8793 39.614 23.9262 39.6713 23.9939C39.6817 24.0095 39.6921 24.0356 39.6921 24.0772C39.6921 24.1085 39.6765 24.1345 39.6504 24.1606C39.6348 24.1762 39.614 24.1814 39.5879 24.1814C39.5463 24.1814 39.515 24.171 39.5046 24.1397C39.4629 24.0981 39.4108 24.072 39.3588 24.0564C39.3015 24.0304 39.2338 24.0147 39.1504 24.0147C39.0775 24.0147 39.015 24.0304 38.9629 24.0564C38.9213 24.0876 38.9004 24.1345 38.9004 24.2022C38.9004 24.2751 38.9265 24.322 38.9838 24.3481C39.0358 24.3793 39.1296 24.4054 39.2546 24.4314C39.3483 24.4626 39.4265 24.4939 39.4838 24.5356C39.5515 24.5668 39.6088 24.6085 39.6504 24.6606C39.7025 24.7179 39.7338 24.796 39.7338 24.8897C39.7338 24.9887 39.7025 25.072 39.6504 25.1397C39.6088 25.197 39.5463 25.2439 39.4629 25.2856C39.3796 25.3116 39.2858 25.3272 39.1921 25.3272C39.0671 25.3272 38.9525 25.3064 38.8588 25.2647C38.7598 25.2231 38.6765 25.1606 38.6088 25.0772Z" fill="black"/>
</svg>
